<?xml version="1.0" encoding="UTF-8"?>
<svg width="128px" height="128px" viewBox="0 0 128 128" version="1.1" xmlns="http://www.w3.org/2000/svg" xmlns:xlink="http://www.w3.org/1999/xlink" style="background: #F9F9F9;">
    <!-- Generator: Sketch 49.1 (51147) - http://www.bohemiancoding.com/sketch -->
    <title>Userlike Logo</title>
    <desc>Created with Sketch.</desc>
    <defs></defs>
    <g id="Userlike-Logo" stroke="none" stroke-width="1" fill="none" fill-rule="evenodd">
        <g id="Group">
            <rect id="Rectangle" fill="#F9F9F9" x="0" y="0" width="128" height="128"></rect>
            <g id="Group-2" transform="translate(13.000000, 24.000000)">
                <path d="M71.58425,12.96 L71.58425,52.82496 C71.58425,59.562 70.8468,62.14536 69.469725,64.17684 C65.795375,69.8976 58.904625,69.99048 56.61165,69.99048 C42.73985,69.99048 42.1873,60.85368 42.1873,53.56368 L42.1873,35.37432 C39.905075,36.85932 37.0789,37.61856 33.6948,37.61856 C31.72325,37.61856 29.812975,37.34424 27.95,36.85608 L27.95,52.82496 C27.95,59.00904 28.13275,64.17684 31.34915,69.25176 C37.598125,79.31196 49.7209,80.78724 56.33215,80.78724 C69.747075,80.78724 85.45175,74.41956 85.45175,54.57888 L85.45175,12.96 L71.58425,12.96 Z" id="Fill-14" fill="#2A333E"></path>
                <path d="M3.2293,1.0098 C6.28875,5.47992 8.9698,8.8398 11.262775,11.10024 C15.2349,15.093 18.98665,17.08236 22.524475,17.08236 C23.532825,17.08236 24.345525,16.84044 24.964725,16.362 C25.542,15.83388 25.82365,15.093 25.82365,14.12856 C25.82365,13.65228 25.764525,13.0518 25.64735,12.32712 C25.5248,11.60676 25.46675,11.10024 25.46675,10.81296 C25.46675,7.88724 26.497675,5.34384 28.550925,3.2076 C30.606325,1.06812 33.386275,0 36.873575,0 C40.556525,0 43.54395,1.12104 45.843375,3.35448 C48.135275,5.589 49.28445,8.50824 49.28445,12.11004 C49.28445,16.5294 47.74505,20.14848 44.654425,22.95972 C41.5724,25.76772 37.44655,27.17712 32.283325,27.17712 C24.3939,27.17712 17.21505,24.003 10.7629,17.65908 C7.317525,14.202 3.727025,9.2286 0,2.74104 L3.2293,1.0098 Z" id="Fill-13" fill="#009DDF"></path>
            </g>
        </g>
    </g>
</svg>